<mxfile host="app.diagrams.net" modified="2023-12-16T07:26:06.025Z" agent="Mozilla/5.0 (Windows NT 10.0; Win64; x64) AppleWebKit/537.36 (KHTML, like Gecko) Chrome/120.0.0.0 Safari/537.36 Edg/120.0.0.0" version="22.1.11" etag="s8RVkORwRuvbNVtk7pCQ" type="github">
  <diagram name="PaginÄƒ-1" id="gKDwvfvF_33Z0476RWhj">
    <mxGraphModel>
      <root>
        <mxCell id="0" />
        <mxCell id="1" parent="0" />
      </root>
    </mxGraphModel>
  </diagram>
</mxfile>
